# xmcd
#
# Track frame offsets:
#	150
#	17137
#	36527
#	54117
#	73865
#	88680
#	107022
#	125892
#	141957
#	156472
#	176300
#
# Disc length: 2563 seconds
#
# Revision: 0
# Processed by: cddbd v1.5.2PL0 Copyright (c) Steve Scherf et al.
# Submitted via: EasyCDDAExtractor 12.0.1.1
#
DISCID=9d0a010b
DTITLE=Shakira - Oral Fixation Vol 2
DYEAR=2005
DGENRE=
TTITLE0=How Do You Do
TTITLE1=Don't Bother
TTITLE2=Illegal (feat. Carlos Santana)
TTITLE3=The Day And The Time (feat. Gustavo Cerati)
TTITLE4=Animal City
TTITLE5=Dreams For Plans
TTITLE6=Hey You
TTITLE7=Your Embrace
TTITLE8=Costume Makes The Clown
TTITLE9=Something
TTITLE10=Timor
EXTD=
EXTT0=
EXTT1=
EXTT2=
EXTT3=
EXTT4=
EXTT5=
EXTT6=
EXTT7=
EXTT8=
EXTT9=
EXTT10=
PLAYORDER=
